<svg width="33" height="52" viewBox="0 0 33 52" fill="none" xmlns="http://www.w3.org/2000/svg">
<path d="M16.9086 1C12.9929 1 9.23764 2.5555 6.46883 5.3243C3.70003 8.09311 2.14453 11.8484 2.14453 15.7641C2.14453 23.129 15.7641 40.4854 15.7641 40.4854H16.9086C16.9086 40.4854 31.6727 23.9175 31.6727 15.7641C31.6727 11.8484 30.1172 8.09311 27.3484 5.3243C24.5796 2.5555 20.8243 1 16.9086 1ZM16.9086 22.9745C15.4826 22.9745 14.0885 22.5516 12.9028 21.7593C11.717 20.967 10.7928 19.8409 10.2471 18.5234C9.70138 17.2059 9.55859 15.7561 9.8368 14.3574C10.115 12.9587 10.8017 11.674 11.8101 10.6656C12.8185 9.6572 14.1033 8.97048 15.502 8.69227C16.9006 8.41405 18.3504 8.55684 19.6679 9.10258C20.9854 9.64831 22.1115 10.5725 22.9038 11.7582C23.6961 12.944 24.119 14.338 24.119 15.7641C24.119 16.711 23.9325 17.6486 23.5701 18.5234C23.2078 19.3982 22.6767 20.1931 22.0071 20.8626C21.3376 21.5321 20.5427 22.0633 19.6679 22.4256C18.7931 22.788 17.8555 22.9745 16.9086 22.9745Z" fill="#272727" stroke="#272727" stroke-linecap="round" stroke-linejoin="round"/>
<path d="M15.7641 1C11.8484 1 8.09311 2.5555 5.3243 5.3243C2.5555 8.09311 1 11.8484 1 15.7641C1 23.9175 15.7641 40.4854 15.7641 40.4854C15.7641 40.4854 30.5282 23.9175 30.5282 15.7641C30.5282 11.8484 28.9727 8.09311 26.2039 5.3243C23.4351 2.5555 19.6798 1 15.7641 1ZM15.7641 22.9745C14.338 22.9745 12.944 22.5516 11.7582 21.7593C10.5725 20.967 9.64832 19.8409 9.10258 18.5234C8.55684 17.2059 8.41405 15.7561 8.69227 14.3574C8.97048 12.9587 9.6572 11.674 10.6656 10.6656C11.674 9.6572 12.9587 8.97048 14.3574 8.69227C15.7561 8.41405 17.2059 8.55684 18.5234 9.10258C19.8409 9.64831 20.967 10.5725 21.7593 11.7582C22.5516 12.944 22.9745 14.338 22.9745 15.7641C22.9745 17.6764 22.2148 19.5104 20.8626 20.8626C19.5104 22.2148 17.6764 22.9745 15.7641 22.9745Z" fill="#00C2CB" stroke="#272727" stroke-linecap="round" stroke-linejoin="round"/>
<circle cx="4.25" cy="4.25" r="4.25" transform="matrix(-1 0 0 1 20.5 43)" fill="#272727"/>
<circle cx="3.5" cy="3.5" r="3.5" transform="matrix(-1 0 0 1 19.5 44)" fill="#00C2CB"/>
</svg>
